<svg version="1.1" xmlns="http://www.w3.org/2000/svg" viewBox="0 0 648.03515625 464.890625" width="1296.0703125" height="929.78125">
  <!-- svg-source:excalidraw -->
  
  <defs>
    <style>
      @font-face {
        font-family: "Virgil";
        src: url("https://excalidraw.com/FG_Virgil.woff2");
      }
      @font-face {
        font-family: "Cascadia";
        src: url("https://excalidraw.com/Cascadia.woff2");
      }
    </style>
  </defs>
  <rect x="0" y="0" width="648.03515625" height="464.890625" fill="#ffffff"></rect><g transform="translate(10 10) rotate(0 313.51171875 222.4453125)"><path d="M0.6000288806855679 0.794099573045969 C149.14420341207807 1.0709424379789563, 297.36863535924203 1.0395801666700573, 627.376448687166 0.20301568880677223 M0.12021614499390126 -0.24646499939262867 C169.79276311104263 -1.6043739916095798, 340.2202070039712 -1.5891870499858922, 627.32300603576 -0.3272103268653155 M626.1890652166137 -0.3255706892333132 C629.1574408709263 92.55935581509404, 628.5225869218096 184.3114343515292, 627.1926517958404 445.3804933169308 M627.4401413917674 0.49003387713660945 C625.7091664113804 96.95441492044536, 624.986697836279 193.26697767502404, 627.0957426589334 444.4053581134011 M626.8421671234071 445.1882764853537 C482.9141407638213 445.6543806513431, 339.43468236688204 444.50149585806156, 0.797680862993002 444.14356253519657 M626.7673313040286 444.7884392660111 C490.22994633512496 442.67839619050454, 353.1340061446637 442.5731554282708, 0.005586435273289681 444.95344207696616 M-0.23397718624617947 444.0504604356706 C0.7612677492193335 283.6035778683971, 0.7208774144229305 124.83777397200788, -0.6878210400109225 -0.062266817238083604 M0.29292315218934073 444.6292190316674 C-1.8193837033880713 305.05713019555634, -1.3981270820677918 165.15333419709728, -0.24052980437994922 -0.4286372745289892" stroke="#000000" stroke-width="1" fill="none"></path></g><g transform="translate(12.77734375 11.1171875) rotate(0 311.01171875 40.197265624999986)"><path d="M0 0 C134.13558508385978 0, 268.27117016771956 0, 622.0234375 0 M0 0 C197.5224494820337 0, 395.0448989640674 0, 622.0234375 0 M622.0234375 0 C622.0234375 24.70710081575343, 622.0234375 49.41420163150686, 622.0234375 80.39453124999997 M622.0234375 0 C622.0234375 20.520464142106718, 622.0234375 41.040928284213436, 622.0234375 80.39453124999997 M622.0234375 80.39453124999997 C415.8648686517954 80.39453124999997, 209.7062998035908 80.39453124999997, 0 80.39453124999997 M622.0234375 80.39453124999997 C382.09342051638595 80.39453124999997, 142.1634035327719 80.39453124999997, 0 80.39453124999997 M0 80.39453124999997 C0 63.661702868217596, 0 46.92887448643522, 0 0 M0 80.39453124999997 C0 60.9553042855139, 0 41.51607732102782, 0 0" stroke="#000000" stroke-width="1" fill="none"></path></g><g transform="translate(292.515625 31.130859375) rotate(0 29.5 12)"><text x="29.5" y="19" font-family="Cascadia, Segoe UI Emoji" font-size="20px" fill="#000000" text-anchor="middle" style="white-space: pre;" direction="ltr">Title</text></g><g><g transform="translate(14.734375 62.48828125) rotate(0 311.65039062500006 0.236328125)"><path d="M0 0 C103.88346354166667 0.07877604166666667, 519.4173177083334 0.3938802083333333, 623.30078125 0.47265625" stroke="#000000" stroke-width="1.5" fill="none" stroke-dasharray="3 6"></path></g></g><g transform="translate(284.47265625 18.517578125) rotate(0 39 34.5)"><text x="39" y="18" font-family="Helvetica, Segoe UI Emoji" font-size="20px" fill="#000000" text-anchor="middle" style="white-space: pre;" direction="ltr"></text><text x="39" y="41" font-family="Helvetica, Segoe UI Emoji" font-size="20px" fill="#000000" text-anchor="middle" style="white-space: pre;" direction="ltr"></text><text x="39" y="64" font-family="Helvetica, Segoe UI Emoji" font-size="20px" fill="#000000" text-anchor="middle" style="white-space: pre;" direction="ltr">nav links</text></g><g transform="translate(20.4453125 102.296875) rotate(0 159.82421875 63.10546875)"><path d="M0 0 C97.73193581168381 0, 195.46387162336762 0, 319.6484375 0 M0 0 C103.94317333488654 0, 207.88634666977308 0, 319.6484375 0 M319.6484375 0 C319.6484375 30.515273944318327, 319.6484375 61.030547888636654, 319.6484375 126.2109375 M319.6484375 0 C319.6484375 29.683747312152263, 319.6484375 59.36749462430453, 319.6484375 126.2109375 M319.6484375 126.2109375 C231.39986307757135 126.2109375, 143.1512886551427 126.2109375, 0 126.2109375 M319.6484375 126.2109375 C224.8853054412648 126.2109375, 130.12217338252958 126.2109375, 0 126.2109375 M0 126.2109375 C0 85.5247810156252, 0 44.83862453125039, 0 0 M0 126.2109375 C0 77.13099743439307, 0 28.051057368786132, 0 0" stroke="#000000" stroke-width="1" fill="none"></path></g><g transform="translate(94.8984375 148.81640625) rotate(0 54.5 23)"><text x="0" y="18" font-family="Helvetica, Segoe UI Emoji" font-size="20px" fill="#000000" text-anchor="start" style="white-space: pre;" direction="ltr">introduction:</text><text x="0" y="41" font-family="Helvetica, Segoe UI Emoji" font-size="20px" fill="#000000" text-anchor="start" style="white-space: pre;" direction="ltr">lorum ipsum</text></g><g transform="translate(20.953125 244.1484375) rotate(0 159.82421875 63.10546875)"><path d="M0 0 C96.72476070404447 0, 193.44952140808894 0, 319.6484375 0 M0 0 C117.13908262573024 0, 234.27816525146048 0, 319.6484375 0 M319.6484375 0 C319.6484375 28.802969629392464, 319.6484375 57.60593925878493, 319.6484375 126.2109375 M319.6484375 0 C319.6484375 25.911716861261084, 319.6484375 51.82343372252217, 319.6484375 126.2109375 M319.6484375 126.2109375 C222.45118734978678 126.2109375, 125.25393719957356 126.2109375, 0 126.2109375 M319.6484375 126.2109375 C245.20996674477283 126.2109375, 170.77149598954566 126.2109375, 0 126.2109375 M0 126.2109375 C0 93.86784743123644, 0 61.52475736247288, 0 0 M0 126.2109375 C0 100.6972234399691, 0 75.18350937993819, 0 0" stroke="#000000" stroke-width="1" fill="none"></path></g><g transform="translate(123.83203125 262.671875) rotate(0 43.5 46)"><text x="0" y="18" font-family="Helvetica, Segoe UI Emoji" font-size="20px" fill="#000000" text-anchor="start" style="white-space: pre;" direction="ltr">main info:</text><text x="0" y="41" font-family="Helvetica, Segoe UI Emoji" font-size="20px" fill="#000000" text-anchor="start" style="white-space: pre;" direction="ltr">- lorum</text><text x="0" y="64" font-family="Helvetica, Segoe UI Emoji" font-size="20px" fill="#000000" text-anchor="start" style="white-space: pre;" direction="ltr">- ipsum</text><text x="0" y="87" font-family="Helvetica, Segoe UI Emoji" font-size="20px" fill="#000000" text-anchor="start" style="white-space: pre;" direction="ltr"></text></g><g transform="translate(371.203125 205.39453125) rotate(0 115.072265625 44.1328125)"><path d="M0 0 C69.12030676748583 0, 138.24061353497166 0, 230.14453125 0 M0 0 C47.61731815711501 0, 95.23463631423002 0, 230.14453125 0 M230.14453125 0 C230.14453125 23.870515182179226, 230.14453125 47.74103036435845, 230.14453125 88.265625 M230.14453125 0 C230.14453125 23.58877358440514, 230.14453125 47.17754716881028, 230.14453125 88.265625 M230.14453125 88.265625 C159.05762314881684 88.265625, 87.97071504763369 88.265625, 0 88.265625 M230.14453125 88.265625 C147.78654568522796 88.265625, 65.42856012045593 88.265625, 0 88.265625 M0 88.265625 C0 64.28282183666451, 0 40.30001867332903, 0 0 M0 88.265625 C0 55.9801277302744, 0 23.694630460548794, 0 0" stroke="#000000" stroke-width="1" fill="none"></path></g><g transform="translate(421.775390625 237.52734375) rotate(0 51.5 9.5)"><text x="51.5" y="15" font-family="Cascadia, Segoe UI Emoji" font-size="16px" fill="#000000" text-anchor="middle" style="white-space: pre;" direction="ltr">lorum ipsum</text></g><g transform="translate(13.77734375 394.3046875) rotate(0 309.470703125 29.607421875)"><path d="M0 0 C163.2182059291594 0, 326.4364118583188 0, 618.94140625 0 M0 0 C200.45245719431952 0, 400.90491438863904 0, 618.94140625 0 M618.94140625 0 C618.94140625 21.441482426768566, 618.94140625 42.88296485353713, 618.94140625 59.21484375000001 M618.94140625 0 C618.94140625 15.52184382628075, 618.94140625 31.0436876525615, 618.94140625 59.21484375000001 M618.94140625 59.21484375000001 C384.325408146709 59.21484375000001, 149.70941004341796 59.21484375000001, 0 59.21484375000001 M618.94140625 59.21484375000001 C387.05375987767655 59.21484375000001, 155.1661135053531 59.21484375000001, 0 59.21484375000001 M0 59.21484375000001 C0 42.59825858272852, 0 25.98167341545704, 0 0 M0 59.21484375000001 C0 37.50323308864718, 0 15.79162242729435, 0 0" stroke="#000000" stroke-width="1" fill="none"></path></g><g transform="translate(293.126953125 416.294921875) rotate(0 39 11.5)"><text x="39" y="18" font-family="Helvetica, Segoe UI Emoji" font-size="20px" fill="#000000" text-anchor="middle" style="white-space: pre;" direction="ltr">nav links</text></g></svg>